<svg viewBox="0 0 24 24" xml:space="preserve" xmlns="http://www.w3.org/2000/svg"><path d="M12 1C5.383 1 0 5.935 0 12c0 2.698 1.066 5.265 3.014 7.28L.146 22.145A.501.501 0 0 0 .5 23H12c6.617 0 12-4.935 12-11S18.617 1 12 1zM6 13c.275 0 .5-.225.5-.5a.5.5 0 1 1 0-1H7a.5.5 0 0 1 .5.5v.5c0 .827-.673 1.5-1.5 1.5s-1.5-.673-1.5-1.5v-2C4.5 9.673 5.173 9 6 9s1.5.673 1.5 1.5a.5.5 0 1 1-1 0 .501.501 0 0 0-1 0v2c0 .275.225.5.5.5zm4.5-2a.5.5 0 1 1 0 1h-1v1H11a.5.5 0 1 1 0 1H9a.5.5 0 0 1-.5-.5v-4A.5.5 0 0 1 9 9h2a.5.5 0 1 1 0 1H9.5v1h1zm4 0a.5.5 0 1 1 0 1h-1v1H15a.5.5 0 1 1 0 1h-2a.5.5 0 0 1-.5-.5v-4A.5.5 0 0 1 13 9h2a.5.5 0 1 1 0 1h-1.5v1h1zm5-.5c0 .384-.145.734-.383 1 .238.266.383.616.383 1v1a.5.5 0 1 1-1 0v-1c0-.275-.225-.5-.5-.5h-.5v1.5a.5.5 0 1 1-1 0v-4a.5.5 0 1 1 1 0V11h.5c.275 0 .5-.225.5-.5v-1a.5.5 0 1 1 1 0v1z" fill="#ffffff" class="fill-303c42"></path></svg>