<svg xmlns="http://www.w3.org/2000/svg" viewBox="0 0 1163.23 277.52"><defs><style>.cls-1,.cls-2{fill:#fff;}.cls-2,.cls-3{fill-rule:evenodd;}.cls-3{fill:#e3a052;}</style></defs><g id="Layer_2" data-name="Layer 2"><g id="Layer_1-2" data-name="Layer 1"><path class="cls-1" d="M92,50.75q-27.25,0-39.38,15.13T40.5,107.25a83.19,83.19,0,0,0,3,23.13,50.9,50.9,0,0,0,9,17.87,40.64,40.64,0,0,0,15,11.63,50.12,50.12,0,0,0,21,4.12q6.5,0,11.12-.25a52,52,0,0,0,8.13-1V102.5h39v85.75q-7,2.76-22.5,5.87T86,197.25a99.45,99.45,0,0,1-35.38-6,73.93,73.93,0,0,1-27.12-17.5A78.14,78.14,0,0,1,6.12,145.5Q0,128.76,0,107.25,0,85.5,6.75,68.75a82.78,82.78,0,0,1,18.5-28.37A77.8,77.8,0,0,1,52.88,22.75a95,95,0,0,1,33.87-6,136.39,136.39,0,0,1,22.13,1.63,141,141,0,0,1,17,3.74,79.34,79.34,0,0,1,11.74,4.38c3.09,1.5,5.29,2.67,6.63,3.5L133,61.25a101.83,101.83,0,0,0-18.38-7.37A77.89,77.89,0,0,0,92,50.75Z"/><path class="cls-1" d="M162.25,129.25q0-17.49,5.37-30.63a65.82,65.82,0,0,1,14.13-21.87A58.79,58.79,0,0,1,201.87,63.5,63.06,63.06,0,0,1,225.25,59q28,0,44.25,17.12t16.25,50.38c0,2.17-.09,4.54-.25,7.12s-.34,4.88-.5,6.88H200.5a24.72,24.72,0,0,0,10.75,18.25q9.5,6.75,25.5,6.75a106.76,106.76,0,0,0,20.12-1.88A75,75,0,0,0,273,159l5,30.25a51.57,51.57,0,0,1-8,3,107.24,107.24,0,0,1-11.13,2.63q-6.12,1.11-13.12,1.87a131.46,131.46,0,0,1-14,.75q-17.76,0-30.88-5.25a60.17,60.17,0,0,1-21.75-14.37,57.07,57.07,0,0,1-12.75-21.63A85.63,85.63,0,0,1,162.25,129.25ZM249.75,115a38.51,38.51,0,0,0-1.63-9.25,23,23,0,0,0-4.25-8A22.56,22.56,0,0,0,236.62,92a23.59,23.59,0,0,0-10.87-2.25A24.92,24.92,0,0,0,215,91.88a22.16,22.16,0,0,0-7.5,5.62,25.38,25.38,0,0,0-4.63,8.12A54,54,0,0,0,200.5,115Z"/><path class="cls-1" d="M303.25,29.75l37.25-6V62.5h44.75v31H340.5v46.25q0,11.76,4.12,18.75t16.63,7a72.09,72.09,0,0,0,12.37-1.12,64.1,64.1,0,0,0,11.63-3.13l5.25,29a104.71,104.71,0,0,1-15,4.75,87.59,87.59,0,0,1-20.25,2Q340,197,330,192.88a39.74,39.74,0,0,1-16-11.5,42.94,42.94,0,0,1-8.38-17.88,105.74,105.74,0,0,1-2.37-23.25Z"/><path class="cls-1" d="M524,177.5q0,32.25-16.38,47.88T457,241a138,138,0,0,1-24-2.12,150.26,150.26,0,0,1-22.25-5.63l6.5-31.25a110.15,110.15,0,0,0,18.37,5.5,108.39,108.39,0,0,0,21.88,2q16,0,22.62-7t6.63-18v-4.75a59.82,59.82,0,0,1-12.38,4.13,66.22,66.22,0,0,1-13.87,1.37q-27.25,0-41.75-16.13T404.25,124a74,74,0,0,1,4.5-26.38,56.17,56.17,0,0,1,13.12-20.37A58.74,58.74,0,0,1,443,64.12a81.06,81.06,0,0,1,28.25-4.62q6.75,0,13.87.62t14.13,1.63q7,1,13.37,2.37T524,67ZM442.25,124q0,31.26,25.25,31.25a37.29,37.29,0,0,0,10.75-1.5,40.71,40.71,0,0,0,8.5-3.5V90.75c-1.84-.33-4-.63-6.5-.87a86.08,86.08,0,0,0-8.75-.38q-14.76,0-22,9.75T442.25,124Z"/><path class="cls-1" d="M962.23,109.72q5.5-6,11.37-12.42T985,84.5q5.49-6.34,10.36-12.06t8.37-9.94H1048q-13.24,15.23-25.87,29.06t-27.63,28.56a171.49,171.49,0,0,1,15.5,16.16q8,9.39,15.5,19.41t13.75,20q6.26,10,10.5,18.28H1006.9q-4-6.51-9.11-14.41T986.94,163.8q-5.75-7.89-12.11-15.16a102,102,0,0,0-12.6-12.28V194H925V6l37.25-6Z"/><path class="cls-1" d="M1107.48,167.25q10.24,0,14.5-2t4.25-7.75q0-4.5-5.5-7.88A106.24,106.24,0,0,0,1104,142a167.23,167.23,0,0,1-15.87-6.75,46.79,46.79,0,0,1-12.13-8.37,33.85,33.85,0,0,1-7.75-11.63A42.88,42.88,0,0,1,1065.48,99q0-18.5,13.75-29.25T1117,59a121.66,121.66,0,0,1,23,2.12,108.27,108.27,0,0,1,17.5,4.63l-6.5,29a138.23,138.23,0,0,0-14.12-4A77.27,77.27,0,0,0,1119.73,89q-17.51,0-17.5,9.75a10,10,0,0,0,.75,4,8.48,8.48,0,0,0,3,3.37,41.7,41.7,0,0,0,6.13,3.52q3.87,1.89,9.87,4.16a152.16,152.16,0,0,1,20.25,9,48.46,48.46,0,0,1,12.63,9.52,29.44,29.44,0,0,1,6.5,11.35,50.41,50.41,0,0,1,1.87,14.47q0,19.46-14.62,29.43t-41.38,10q-17.51,0-29.12-3t-16.13-5l6.25-30.25a121.29,121.29,0,0,0,19.5,5.87A94.56,94.56,0,0,0,1107.48,167.25Z"/><path class="cls-2" d="M821,95.19a19.22,19.22,0,1,1-19.21,19.21A19.21,19.21,0,0,1,821,95.19Zm-194.3,0a19.22,19.22,0,1,1-19.21,19.21,19.21,19.21,0,0,1,19.21-19.21Z"/><path class="cls-3" d="M757.36,239.54c2.51,21.8-15.17,38-33.94,38s-36.46-16.18-33.95-38ZM678.86,44.43h88C781.68,33.06,800.72,26.58,822,26.58c37,0,61.34,20.74,78.63,53,.25.61-42.42,25-44.64,26.39l-13.21-25,14.5-8.73c-8.73-11.26-22.68-15.47-37.55-15.47-30.21,0-52,24-52,56.22,0,30.28,20.71,56.6,50.1,57.63,8.79.31,12.19-.14,20.77-3.68,20-8.22,49.8-28.71,68.06-48,5.31,32.08-29.12,82.6-86.06,81.86-50.56,0-86.11-36.92-86.11-87.82,0-17.68,4.54-33.51,12.56-46.64H698.4a150.25,150.25,0,0,1,7.93,13.23c.25.61-42.42,25-44.64,26.39l-13.21-25L663,72.32c-8.73-11.26-22.68-15.47-37.55-15.47-30.21,0-52,24-52,56.22,0,30.28,20.71,56.6,50.1,57.63,8.79.31,12.19-.14,20.77-3.68,19.95-8.22,49.8-28.71,68.06-48,5.3,32.08-29.12,82.6-86.06,81.86-50.56,0-86.11-36.92-86.11-87.82s37.61-86.45,87.48-86.45c20.66,0,37.4,6.49,51.16,17.85Z"/></g></g></svg>